<svg xmlns="http://www.w3.org/2000/svg" width="1440" height="800" viewBox="0 0 1440 800" fill="none">
  <g fill="#FFFFFF" fill-opacity="0.55">
    <path d="M-65 90C20-35 190-10 236 85S180 240 83 222-122 174-65 90Z"/>
    <path d="M420 35C470-28 583-18 609 50S562 139 498 119 375 91 420 35Z"/>
    <path d="M998 98C1049 22 1181 38 1197 127S1113 243 1043 213 950 170 998 98Z"/>
    <path d="M1290 333C1350 259 1468 292 1494 387S1443 531 1363 498 1231 408 1290 333Z"/>
    <path d="M278 416C322 355 405 374 416 438S378 543 318 526 228 480 278 416Z"/>
    <path d="M665 616C735 533 870 572 896 674S813 828 729 786 604 689 665 616Z"/>
    <path d="M-46 668C6 597 126 619 151 706S103 837 25 811-99 742-46 668Z"/>
    <path d="M1102 699C1135 654 1207 667 1224 725S1188 805 1143 786 1066 748 1102 699Z"/>
  </g>
  <g fill="#C8E6C9" fill-opacity="0.3">
    <path d="M726 175C762 117 851 139 866 195S834 283 781 271 690 234 726 175Z"/>
    <path d="M76 357C106 314 170 329 177 375S147 448 110 431 48 400 76 357Z"/>
    <path d="M1026 447C1068 385 1151 421 1160 481S1112 568 1066 548 989 506 1026 447Z"/>
    <path d="M384 724C417 681 490 700 495 748S458 822 418 804 352 769 384 724Z"/>
    <path d="M1346 39C1377-10 1440 7 1456 59S1420 136 1383 116 1316 85 1346 39Z"/>
  </g>
</svg>
